<?xml version="1.0" encoding="utf-8"?>
<svg width="21px" height="26px" viewBox="0 0 21 26" version="1.1" xmlns:xlink="http://www.w3.org/1999/xlink" xmlns="http://www.w3.org/2000/svg">
  <g id="Group-Copy-3" transform="translate(0.14990234 0.1499939)" opacity="0.38867188">
    <path d="M1.11724 3.04659L1.11724 1.14192L19.1607 1.14192L19.1607 3.04659L1.11724 3.04659ZM16.7586 8.5278L3.46345 8.5278L2.84897 4.18851L17.3731 4.18851L16.7586 8.5278ZM15.4179 18.0057L4.80414 18.0057L3.63103 9.66972L16.6469 9.66972L15.4179 18.0057ZM14.6359 23.9437L5.58621 23.9437L4.91586 19.2048L15.2503 19.2048L14.6359 23.9437ZM1.11724 0C0.502759 0 0 0.513864 0 1.14192L0 3.10368C0 3.73174 0.502759 4.2456 1.11724 4.2456L1.73172 4.2456L4.58069 24.6289C4.63655 24.9144 4.86 25.1427 5.13931 25.1427L15.0828 25.1427C15.3621 25.1427 15.5855 24.9144 15.6414 24.6289L18.4903 4.18851L19.1048 4.18851C19.7193 4.18851 20.2221 3.67464 20.2221 3.04659L20.2221 1.14192C20.2221 0.513864 19.7193 0 19.1048 0L1.11724 0Z" id="Fill-7" fill="#2D140D" fill-rule="evenodd" stroke="#2D140D" stroke-width="0.3" />
  </g>
</svg>