<?xml version="1.0" encoding="utf-8"?>
<svg width="28px" height="26px" viewBox="0 0 28 26" version="1.1" xmlns:xlink="http://www.w3.org/1999/xlink" xmlns="http://www.w3.org/2000/svg">
  <path d="M27.4978 21.4621C27.4691 21.4495 24.6472 20.1817 21.0118 17.8339C20.893 17.6231 20.7626 17.4161 20.6161 17.2151C20.5083 17.0672 20.3923 16.9229 20.2696 16.7825C20.4514 16.7412 20.6304 16.6923 20.8051 16.6355C24.2758 15.5125 25.9774 11.5337 26.0482 11.3647C26.2102 10.9793 26.0649 10.5345 25.7066 10.3171C25.5701 10.2339 22.7267 8.53904 19.7026 8.84456C21.2201 6.897 22.4343 4.90096 23.3252 2.88279C23.3336 2.86461 23.3408 2.84601 23.3474 2.82727C23.8729 1.36632 23.8082 0.51246 23.1451 0.139858C22.3 -0.335759 21.4401 0.429879 20.1485 2.00808C19.8523 2.3704 19.907 2.90266 20.2706 3.19776C20.5669 3.43831 20.977 3.44649 21.2783 3.24567C20.3956 5.00214 19.2471 6.7417 17.85 8.4449C17.6682 4.96423 14.5821 2.28443 14.4472 2.16887C14.1289 1.89689 13.6592 1.89689 13.3409 2.16887C13.2087 2.28175 10.2608 4.8436 9.95634 8.20815C8.6465 6.58105 7.56332 4.92069 6.72108 3.24567C7.02286 3.44705 7.43287 3.43831 7.72913 3.19776C8.09274 2.90266 8.14749 2.3704 7.85123 2.00808C6.56021 0.429879 5.70029 -0.334772 4.85465 0.139858C4.19153 0.51246 4.12687 1.36688 4.65248 2.82727C4.65913 2.84601 4.6662 2.86461 4.67455 2.88279C5.56984 4.91139 6.79125 6.91673 8.31996 8.87317C5.20949 8.45153 2.22239 10.2324 2.08204 10.3171C1.72395 10.5345 1.57851 10.9798 1.73994 11.3653C1.81068 11.5342 3.51284 15.5125 6.98353 16.6355C7.15882 16.6923 7.33723 16.7412 7.5196 16.7825C7.39693 16.9229 7.28092 17.0672 7.17311 17.2157C6.97857 17.4816 6.8112 17.7585 6.66463 18.0415C3.19564 20.251 0.528996 21.45 0.501973 21.4621C0.0741327 21.6532 -0.117009 22.1531 0.0741327 22.5791C0.215614 22.8934 0.525176 23.0795 0.849593 23.0795C0.965608 23.0795 1.08332 23.0559 1.19608 23.0057C1.29229 22.9628 3.18729 22.1118 5.89864 20.501C5.58809 22.5869 6.0131 24.4325 6.04069 24.5492C6.13251 24.933 6.47674 25.2 6.86638 25.2C6.88958 25.2 6.91279 25.1989 6.93599 25.1972C7.11892 25.1824 11.4436 24.7992 13.5885 21.858C13.6968 21.7099 13.7984 21.5557 13.8946 21.3961C13.9903 21.5557 14.0924 21.7099 14.2002 21.858C16.3456 24.7992 20.6703 25.1824 20.8532 25.1972C21.2726 25.2297 21.6512 24.9555 21.748 24.5492C21.7767 24.4304 22.2194 22.5037 21.8674 20.3613C24.7008 22.0616 26.7025 22.9606 26.8042 23.0057C26.9164 23.0559 27.0347 23.0801 27.1502 23.0801C27.4746 23.0801 27.7847 22.8934 27.9256 22.5797C28.1173 22.1531 27.9256 21.6527 27.4978 21.4621ZM24.1338 11.4071C23.5519 12.4557 22.2498 14.3902 20.2812 15.027C19.6501 15.2312 18.9393 15.3017 18.1701 15.2373C17.776 15.206 17.4128 15.4454 17.2913 15.8186C17.2626 15.9061 17.2499 15.9953 17.2504 16.0834L17.0747 15.0651L19.0233 13.1736C19.2549 12.9484 19.3378 12.6126 19.2384 12.3065C19.1384 12.0005 18.8725 11.7776 18.5525 11.7312L17.3465 11.5562C17.8413 11.1791 18.3551 10.9012 18.8796 10.7317C20.8388 10.0975 23.0417 10.9006 24.1338 11.4071ZM15.3259 14.9132L15.5702 16.334L14.2891 15.6629C14.1659 15.5985 14.0299 15.5659 13.8945 15.5659C13.7586 15.5659 13.6232 15.5985 13.4994 15.6629L12.2183 16.334L12.4632 14.9132C12.5101 14.6384 12.4189 14.3588 12.2188 14.1644L11.1826 13.1581L12.6146 12.9507C12.8914 12.9111 13.1303 12.7376 13.254 12.4883L13.8945 11.1957L14.535 12.4883C14.6588 12.7381 14.8976 12.9111 15.174 12.9507L16.6065 13.1581L15.5697 14.1644C15.3696 14.3588 15.2784 14.6384 15.3259 14.9132ZM13.8956 3.99594C14.7173 4.87122 16.1614 6.70266 16.1614 8.76479C16.1614 9.42586 16.0095 10.1206 15.7094 10.8307C15.6923 10.8715 15.679 10.9139 15.6691 10.9557L14.6555 8.91065C14.5123 8.62218 14.2172 8.4394 13.8945 8.4394C13.5712 8.4394 13.2761 8.62218 13.1329 8.91065L12.1199 10.9562C12.1071 10.905 12.0912 10.8544 12.0685 10.8059C11.7755 10.1046 11.627 9.41811 11.627 8.76479C11.627 6.71252 13.0749 4.87389 13.8956 3.99594ZM7.50823 15.027C5.54913 14.3929 4.24043 12.4535 3.65625 11.4043C4.74552 10.8968 6.94074 10.0941 8.90988 10.7317C9.43436 10.9012 9.94822 11.1791 10.443 11.5562L9.23642 11.7312C8.91696 11.7776 8.65126 12.0005 8.55123 12.3065C8.45106 12.6126 8.53453 12.9484 8.76614 13.1736L10.7143 15.0651L10.5402 16.079C10.5396 15.654 10.2218 15.2935 9.79683 15.2407C9.73218 15.2329 9.66752 15.2323 9.60343 15.2384C8.83971 15.3011 8.13499 15.2302 7.50823 15.027ZM20.2216 23.3955C19.0405 23.1687 16.7913 22.5323 15.5742 20.8638C15.1896 20.3365 14.905 19.6962 14.7282 18.9602C14.6685 18.652 14.4374 18.3904 14.1136 18.3046C13.6698 18.1874 13.2133 18.4417 13.0812 18.8793C13.0751 18.8992 13.0702 18.9189 13.0658 18.9393C12.8889 19.6847 12.6031 20.3321 12.2146 20.8638C11.0042 22.5234 8.75002 23.1637 7.56724 23.3938C7.4208 22.2014 7.33577 19.8686 8.54657 18.2094C8.93126 17.6815 9.45517 17.2142 10.1046 16.8189C10.2852 16.7181 10.4229 16.5535 10.4919 16.3571L10.2544 17.7366C10.1996 18.0542 10.3307 18.3745 10.592 18.5639C10.8534 18.7528 11.1999 18.7774 11.4857 18.6278L13.8942 17.3666L16.3027 18.6278C16.427 18.6933 16.5624 18.7251 16.6973 18.7251L16.7 18.7251C17.1687 18.7251 17.5483 18.3465 17.5483 17.8796C17.5483 17.8086 17.5401 17.7398 17.5234 17.6737L17.2969 16.3576C17.3599 16.5387 17.4842 16.6984 17.6584 16.8035C18.3193 17.2015 18.8521 17.6748 19.2423 18.2094C20.4537 19.8696 20.3681 22.2048 20.2216 23.3955Z" id="Fill-1" fill="#2D140D" fill-opacity="0.4" fill-rule="evenodd" stroke="none" />
</svg>