<?xml version="1.0" encoding="utf-8"?>
<svg width="29px" height="44px" viewBox="0 0 29 44" version="1.1" xmlns:xlink="http://www.w3.org/1999/xlink" xmlns="http://www.w3.org/2000/svg">
  <g id="Group-Copy-2" opacity="0.38867188">
    <path d="M25.5616 11.6476L1.58276 11.6476L1.58276 7.84594L27.1443 7.84594L27.1443 11.6476L25.5616 11.6476ZM23.7414 19.4126L4.90655 19.4126L4.03603 13.2653L24.6119 13.2653L23.7414 19.4126ZM21.8421 32.8397L6.80586 32.8397L5.14397 21.0304L23.5831 21.0304L21.8421 32.8397ZM20.7341 41.2519L7.91379 41.2519L6.96414 34.5383L21.6047 34.5383L20.7341 41.2519ZM5.61879 4.93405L22.3169 1.77949L22.3169 6.22822L5.61879 6.22822L5.61879 4.93405ZM27.0652 6.22822L23.8205 6.22822L23.8205 0.80886C23.8205 0.323544 23.504 0 23.0291 0C22.95 0 22.95 0 22.8709 0L4.66914 3.4781C4.27345 3.55898 4.03603 3.88253 4.03603 4.28696L4.03603 6.22822L1.58276 6.22822C0.712241 6.22822 0 6.9562 0 7.84594L0 11.7285C0 12.6182 0.712241 13.3462 1.58276 13.3462L2.45328 13.3462L6.48931 42.2225C6.56845 42.6269 6.885 42.9505 7.28069 42.9505L21.3672 42.9505C21.7629 42.9505 22.0795 42.6269 22.1586 42.2225L26.1947 13.2653L27.0652 13.2653C27.9357 13.2653 28.6479 12.5373 28.6479 11.6476L28.6479 7.84594C28.6479 6.9562 27.9357 6.22822 27.0652 6.22822L27.0652 6.22822Z" transform="translate(0 0.0202215)" id="Fill-7" fill="#2D140D" fill-rule="evenodd" stroke="none" />
  </g>
</svg>