<?xml version="1.0" encoding="utf-8"?>
<svg width="26px" height="38px" viewBox="0 0 26 38" version="1.1" xmlns:xlink="http://www.w3.org/1999/xlink" xmlns="http://www.w3.org/2000/svg">
  <g id="Group-Copy" transform="translate(0.5 0.5)">
    <path d="M21.8025 9.82051L1.35 9.82051L1.35 6.61521L23.1525 6.61521L23.1525 9.82051L21.8025 9.82051ZM20.25 16.3675L4.185 16.3675L3.4425 11.1845L20.9925 11.1845L20.25 16.3675ZM18.63 27.6884L5.805 27.6884L4.3875 17.7315L20.115 17.7315L18.63 27.6884ZM17.685 34.781L6.75 34.781L5.94 29.1205L18.4275 29.1205L17.685 34.781ZM4.7925 4.16008L19.035 1.50036L19.035 5.25125L4.7925 5.25125L4.7925 4.16008ZM23.085 5.25125L20.3175 5.25125L20.3175 0.68198C20.3175 0.272792 20.0475 0 19.6425 0C19.575 0 19.575 0 19.5075 0L3.9825 2.93251C3.645 3.00071 3.4425 3.2735 3.4425 3.61449L3.4425 5.25125L1.35 5.25125C0.6075 5.25125 0 5.86503 0 6.61521L0 9.88871C0 10.6389 0.6075 11.2527 1.35 11.2527L2.0925 11.2527L5.535 35.5994C5.6025 35.9403 5.8725 36.2131 6.21 36.2131L18.225 36.2131C18.5625 36.2131 18.8325 35.9403 18.9 35.5994L22.3425 11.1845L23.085 11.1845C23.8275 11.1845 24.435 10.5707 24.435 9.82051L24.435 6.61521C24.435 5.86503 23.8275 5.25125 23.085 5.25125L23.085 5.25125Z" transform="translate(0 0.017049499)" id="Fill-7" fill="#2D140D" fill-rule="evenodd" stroke="#2D140D" stroke-width="1" />
  </g>
</svg>