<?xml version="1.0" encoding="utf-8"?>
<svg width="14px" height="12px" viewBox="0 0 14 12" version="1.1" xmlns:xlink="http://www.w3.org/1999/xlink" xmlns="http://www.w3.org/2000/svg">
  <g id="distance">
    <g id="distance">
      <path d="M9.13043 0C8.56348 0 8.08522 0.364348 7.90609 0.869565L2.5287 0.869565C2.3487 0.364348 1.8713 0 1.30435 0C0.584348 0 0 0.584348 0 1.30435C0 2.02435 0.584348 2.6087 1.30435 2.6087C1.8713 2.6087 2.34957 2.24435 2.5287 1.73913L7.90609 1.73913C8.08609 2.24435 8.56348 2.6087 9.13043 2.6087C9.85044 2.6087 10.4348 2.02435 10.4348 1.30435C10.4348 0.584348 9.85044 0 9.13043 0" transform="translate(1.7391304 8.695652)" id="Fill-1" fill="#514644" fill-rule="evenodd" stroke="none" />
      <path d="M1.73913 3.04348C1.73913 2.32348 2.32348 1.73913 3.04348 1.73913C3.76348 1.73913 4.34783 2.32348 4.34783 3.04348C4.34783 3.76348 3.76348 4.34783 3.04348 4.34783C2.32348 4.34783 1.73913 3.76348 1.73913 3.04348ZM3.04348 7.82609C3.16696 7.82609 3.28435 7.77304 3.36696 7.68174C3.64522 7.3713 6.08696 4.60522 6.08696 3.04348C6.08696 1.36522 4.72174 0 3.04348 0C1.36522 0 0 1.36522 0 3.04348C0 4.60522 2.44174 7.3713 2.72 7.68174C2.80261 7.77304 2.92 7.82609 3.04348 7.82609L3.04348 7.82609Z" id="Fill-3" fill="#514644" fill-rule="evenodd" stroke="none" />
      <path d="M1.73913 3.04348C1.73913 2.32348 2.32348 1.73913 3.04348 1.73913C3.76348 1.73913 4.34783 2.32348 4.34783 3.04348C4.34783 3.76348 3.76348 4.34783 3.04348 4.34783C2.32348 4.34783 1.73913 3.76348 1.73913 3.04348ZM3.04348 7.82609C3.16696 7.82609 3.28435 7.77304 3.36696 7.68174C3.64522 7.3713 6.08696 4.60522 6.08696 3.04348C6.08696 1.36522 4.72174 0 3.04348 0C1.36522 0 0 1.36522 0 3.04348C0 4.60522 2.44174 7.3713 2.72 7.68174C2.80261 7.77304 2.92 7.82609 3.04348 7.82609L3.04348 7.82609Z" transform="translate(7.826087 0)" id="Fill-5" fill="#514644" fill-rule="evenodd" stroke="none" />
    </g>
  </g>
</svg>