<?xml version="1.0" encoding="utf-8"?>
<svg width="14px" height="14px" viewBox="0 0 14 14" version="1.1" xmlns:xlink="http://www.w3.org/1999/xlink" xmlns="http://www.w3.org/2000/svg">
  <g id="time">
    <path d="M6.97541 0C3.12918 0 0 3.12918 0 6.97541C0 10.8218 3.12918 13.951 6.97541 13.951C10.8218 13.951 13.951 10.8218 13.951 6.97541C13.951 3.12918 10.8218 0 6.97541 0ZM6.97541 12.4666C3.948 12.4666 1.48436 10.0035 1.48436 6.97541C1.48436 3.94728 3.948 1.48436 6.97541 1.48436C10.0035 1.48436 12.4674 3.94728 12.4674 6.97541C12.4674 10.0035 10.0035 12.4666 6.97541 12.4666Z" transform="translate(0 0.048820514)" id="Fill-1" fill="#514644" fill-rule="evenodd" stroke="none" />
    <path d="M4.2831 4.34341L1.14836 4.34341L1.14836 0.574179C1.14836 0.257205 0.891872 0 0.574179 0C0.257385 0 0 0.257205 0 0.574179L0 4.91759C0 5.23528 0.257385 5.49195 0.574179 5.49195L4.2831 5.49195C4.60079 5.49195 4.858 5.23528 4.858 4.91759C4.858 4.60079 4.60079 4.34341 4.2831 4.34341Z" transform="translate(6.327641 2.4656153)" id="Fill-2" fill="#514644" fill-rule="evenodd" stroke="none" />
  </g>
</svg>