<?xml version="1.0" encoding="utf-8"?>
<svg width="26px" height="24px" viewBox="0 0 26 24" version="1.1" xmlns:xlink="http://www.w3.org/1999/xlink" xmlns="http://www.w3.org/2000/svg">
  <g id="Group-4-Copy-3" transform="translate(1 1)" opacity="0.4">
    <g id="Group-10">
      <path d="M22.4 19.1481C22.4 19.8232 21.8628 20.3704 21.2 20.3704L14 20.3704C13.3372 20.3704 12.8 19.8232 12.8 19.1481L12.8 11.8148C12.8 11.1398 13.3372 10.5926 14 10.5926L21.2 10.5926C21.8628 10.5926 22.4 11.1398 22.4 11.8148L22.4 19.1481ZM9.6 11.8148L9.6 19.1481C9.6 19.8232 9.06275 20.3704 8.4 20.3704L1.2 20.3704C0.53725 20.3704 0 19.8232 0 19.1481L0 11.8148C0 11.1398 0.53725 10.5926 1.2 10.5926L8.4 10.5926C9.06275 10.5926 9.6 11.1398 9.6 11.8148ZM6.4 8.55556L6.4 1.22222C6.4 0.547199 6.93725 0 7.6 0L14.8 0C15.4628 0 16 0.547199 16 1.22222L16 8.55556C16 9.23058 15.4628 9.77778 14.8 9.77778L7.6 9.77778C6.93725 9.77778 6.4 9.23058 6.4 8.55556Z" transform="translate(0.8 0.8148148)" id="Fill-9" fill="none" fill-rule="evenodd" stroke="#2D140D" stroke-width="2" />
    </g>
  </g>
</svg>