<?xml version="1.0" encoding="utf-8"?>
<svg width="27px" height="19px" viewBox="0 0 27 19" version="1.1" xmlns:xlink="http://www.w3.org/1999/xlink" xmlns="http://www.w3.org/2000/svg">
  <g id="Group-4-Copy-2" transform="translate(1.5 1.5)">
    <g id="Group-10">
      <path d="M22.4 13.5556C22.4 14.2306 21.8628 14.7778 21.2 14.7778L14 14.7778C13.3372 14.7778 12.8 14.2306 12.8 13.5556L12.8 6.22222C12.8 5.5472 13.3372 5 14 5L21.2 5C21.8628 5 22.4 5.5472 22.4 6.22222L22.4 13.5556ZM9.6 1.22222L9.6 8.55556C9.6 9.23058 9.06275 9.77778 8.4 9.77778L1.2 9.77778C0.53725 9.77778 0 9.23058 0 8.55556L0 1.22222C0 0.547199 0.53725 0 1.2 0L8.4 0C9.06275 0 9.6 0.547199 9.6 1.22222Z" transform="translate(0.8 0.4074074)" id="Fill-9" fill="none" fill-rule="evenodd" stroke="#2D140D" stroke-width="3" />
    </g>
  </g>
</svg>